<?xml version="1.0" standalone="no"?><!DOCTYPE svg PUBLIC "-//W3C//DTD SVG 1.1//EN" "http://www.w3.org/Graphics/SVG/1.1/DTD/svg11.dtd"><svg class="icon" width="200px" height="200.00px" viewBox="0 0 1024 1024" version="1.1" xmlns="http://www.w3.org/2000/svg"><path fill="#d81e06" d="M298.666667 213.333333h426.666666v42.666667H298.666667z"  /><path fill="#d81e06" d="M725.333333 576c-12.8 0-21.333333-8.533333-21.333333-21.333333V234.666667c0-12.8 8.533333-21.333333 21.333333-21.333334s21.333333 8.533333 21.333334 21.333334v320c0 12.8-8.533333 21.333333-21.333334 21.333333z"  /><path fill="#d81e06" d="M810.666667 896H213.333333c-12.8 0-21.333333-8.533333-21.333333-21.333333V533.333333c0-6.4 4.266667-14.933333 10.666667-17.066666 6.4-4.266667 14.933333-4.266667 21.333333-2.133334l305.066667 145.066667 273.066666-145.066667c6.4-4.266667 14.933333-4.266667 21.333334 0 6.4 4.266667 10.666667 10.666667 10.666666 19.2v341.333334c-2.133333 12.8-10.666667 21.333333-23.466666 21.333333z m-576-42.666667h554.666666V569.6L539.733333 704c-6.4 2.133333-12.8 4.266667-19.2 0L234.666667 567.466667V853.333333zM618.666667 384H405.333333c-12.8 0-21.333333-8.533333-21.333333-21.333333s8.533333-21.333333 21.333333-21.333334h213.333334c12.8 0 21.333333 8.533333 21.333333 21.333334s-8.533333 21.333333-21.333333 21.333333z"  /><path fill="#d81e06" d="M618.666667 512H405.333333c-12.8 0-21.333333-8.533333-21.333333-21.333333s8.533333-21.333333 21.333333-21.333334h213.333334c12.8 0 21.333333 8.533333 21.333333 21.333334s-8.533333 21.333333-21.333333 21.333333zM298.666667 576c-12.8 0-21.333333-8.533333-21.333334-21.333333V234.666667c0-12.8 8.533333-21.333333 21.333334-21.333334s21.333333 8.533333 21.333333 21.333334v320c0 12.8-8.533333 21.333333-21.333333 21.333333z"  /></svg>