<?xml version="1.0" standalone="no"?><!DOCTYPE svg PUBLIC "-//W3C//DTD SVG 1.1//EN" "http://www.w3.org/Graphics/SVG/1.1/DTD/svg11.dtd"><svg class="icon" width="200px" height="200.00px" viewBox="0 0 1024 1024" version="1.1" xmlns="http://www.w3.org/2000/svg"><path fill="#d81e06" d="M772 892H232c-60.7 0-110-49.3-110-110V322c0-60.7 49.3-110 110-110h180c16.6 0 30 13.4 30 30s-13.4 30-30 30H232c-27.6 0-50 22.4-50 50v460c0 27.6 22.4 50 50 50h540c27.6 0 50-22.4 50-50V462c0-16.6 13.4-30 30-30s30 13.4 30 30v320c0 60.7-49.3 110-110 110zM812 312c-7.7 0-15.4-2.9-21.2-8.8-11.7-11.7-11.7-30.7 0-42.4l38.8-38.8-38.8-38.8c-11.7-11.7-11.7-30.7 0-42.4s30.7-11.7 42.4 0l60 60c11.7 11.7 11.7 30.7 0 42.4l-60 60c-5.8 5.9-13.5 8.8-21.2 8.8zM502 652c-16.6 0-30-13.4-30-30v-80c0-47.2 9.3-93.1 27.5-136.2 17.6-41.7 42.9-79.1 75-111.2s69.6-57.4 111.2-75c43.2-18.3 89-27.5 136.2-27.5 16.6 0 30 13.4 30 30s-13.4 30-30 30c-159.9 0-290 130.1-290 290v80c0.1 16.5-13.3 29.9-29.9 29.9z" /></svg>